<?xml version="1.0" encoding="iso-8859-1"?>
<!-- Uploaded to: SVG Repo, www.svgrepo.com, Generator: SVG Repo Mixer Tools -->
<svg fill="#000000" height="800px" width="800px" version="1.1" id="Layer_1" xmlns="http://www.w3.org/2000/svg" xmlns:xlink="http://www.w3.org/1999/xlink" 
	 viewBox="0 0 502 502" xml:space="preserve">
<g>
	<g>
		<g>
			<path d="M431,0H71c-5.522,0-10,4.477-10,10v482c0,5.523,4.478,10,10,10h360c5.522,0,10-4.477,10-10V10C441,4.477,436.522,0,431,0
				z M421,482H81V20h340V482z"/>
			<path d="M126,165h87c5.522,0,10-4.477,10-10V68c0-5.523-4.478-10-10-10h-87c-5.522,0-10,4.477-10,10v87
				C116,160.523,120.478,165,126,165z M136,78h67v67h-67V78z"/>
			<path d="M126,306h87c5.522,0,10-4.477,10-10v-19c0-5.523-4.478-10-10-10c-5.522,0-10,4.477-10,10v9h-67v-67h62
				c5.522,0,10-4.477,10-10s-4.478-10-10-10h-72c-5.522,0-10,4.477-10,10v87C116,301.523,120.478,306,126,306z"/>
			<path d="M126,446h87c5.522,0,10-4.477,10-10v-87c0-5.523-4.478-10-10-10h-87c-5.522,0-10,4.477-10,10v87
				C116,441.523,120.478,446,126,446z M136,359h67v67h-67V359z"/>
			<path d="M327,99h50c5.522,0,10-4.477,10-10s-4.478-10-10-10h-50c-5.522,0-10,4.477-10,10S321.478,99,327,99z"/>
			<path d="M268,99h17c5.522,0,10-4.477,10-10s-4.478-10-10-10h-17c-5.522,0-10,4.477-10,10S262.478,99,268,99z"/>
			<path d="M268,140h109c5.522,0,10-4.477,10-10s-4.478-10-10-10H268c-5.522,0-10,4.477-10,10S262.478,140,268,140z"/>
			<path d="M377,221h-50c-5.522,0-10,4.477-10,10s4.478,10,10,10h50c5.522,0,10-4.477,10-10S382.522,221,377,221z"/>
			<path d="M268,241h17c5.522,0,10-4.477,10-10s-4.478-10-10-10h-17c-5.522,0-10,4.477-10,10S262.478,241,268,241z"/>
			<path d="M268,282h109c5.522,0,10-4.477,10-10s-4.478-10-10-10H268c-5.522,0-10,4.477-10,10S262.478,282,268,282z"/>
			<path d="M377,360h-50c-5.522,0-10,4.477-10,10s4.478,10,10,10h50c5.522,0,10-4.477,10-10S382.522,360,377,360z"/>
			<path d="M268,380h17c5.522,0,10-4.477,10-10s-4.478-10-10-10h-17c-5.522,0-10,4.477-10,10S262.478,380,268,380z"/>
			<path d="M268,421h109c5.522,0,10-4.477,10-10s-4.478-10-10-10H268c-5.522,0-10,4.477-10,10S262.478,421,268,421z"/>
			<path d="M161.907,236.27c-3.991-3.815-10.323-3.672-14.138,0.321c-3.816,3.993-3.672,10.323,0.321,14.139l25.339,24.341
				c1.953,1.953,4.512,2.929,7.071,2.929s5.118-0.976,7.071-2.929l59.5-59.5c3.905-3.905,3.905-10.237,0-14.143
				c-3.906-3.905-10.236-3.905-14.143,0l-52.52,52.52L161.907,236.27z"/>
		</g>
	</g>
</g>
</svg>