<svg version="1.1" xmlns="http://www.w3.org/2000/svg" width="256" height="256">
  <metadata> Svg Vector Icons : http://www.onlinewebfonts.com/icon </metadata>
  <g>
      <path fill="#000000" d="M185.6,115.7c0-47.5-39.4-86.1-87.8-86.1C49.4,29.7,10,68.3,10,115.7c0,24.2,10.2,46.9,28.2,63.2l-16.3,23.4c-1.6,2.3-1.6,5.3,0,7.6c1.3,1.8,3.3,2.7,5.3,2.7c0.6,0,1.2-0.1,1.8-0.3L75.5,199c7.2,1.9,14.7,2.8,22.3,2.8C146.2,201.8,185.6,163.2,185.6,115.7z M97.8,188.7c-7,0-13.9-0.9-20.6-2.8c-1.2-0.3-2.4-0.3-3.6,0l-30.5,8.7l9.2-13.1c2-2.8,1.4-6.7-1.3-8.9c-17.7-13.9-27.9-34.7-27.9-56.9c0-40.2,33.5-72.9,74.7-72.9c41.2,0,74.7,32.7,74.7,72.9C172.5,156,139,188.7,97.8,188.7z"/><path fill="#000000" d="M221.6,195.3c15.6-14.2,24.4-33.9,24.4-55c0-33.3-22.1-62.8-53.7-71.6c-3.4-1-7.1,1.1-8.1,4.6s1.1,7.1,4.6,8.1c26,7.3,44.1,31.5,44.1,59c0,18.8-8.6,36.4-23.6,48.2c-2.5,2-3.2,5.4-1.7,8.2l5.9,11.2l-22.5-8c-1.3-0.5-2.6-0.5-3.9-0.1c-5.7,1.6-11.5,2.4-17.5,2.4c-11.1,0-15.3-0.3-23.3-4.2c-3.3-1.6-7.2-0.2-8.8,3c-1.6,3.3-0.2,7.2,3,8.8c10.9,5.3,17.8,5.5,29,5.5c6.4,0,12.8-0.8,19-2.3l36.5,13c0.7,0.3,1.5,0.4,2.2,0.4c1.9,0,3.7-0.8,5-2.3c1.8-2,2.1-5,0.8-7.3L221.6,195.3z"/><path fill="#000000" d="M101.8,62.5c-6.7,0-13.1,2-18.6,5.7C74.3,74.2,69,84.2,69,94.9c0,3.6,2.9,6.6,6.6,6.6c3.6,0,6.6-2.9,6.6-6.6c0-6.3,3.2-12.3,8.5-15.9c3.3-2.2,7.2-3.4,11.2-3.4c10.8,0,19.7,8.7,19.7,19.3c0,3.9-1.2,7.6-3.3,10.8c-3.7,5.3-9.8,8.5-16.6,8.6c-6.6,0.3-13.3,4.7-13.3,12.4v14.5c0,3.6,2.9,6.6,6.6,6.6c3.6,0,6.6-2.9,6.6-6.6v-13.7c0.2-0.1,0.4-0.1,0.5-0.1c10.9,0,21-5.3,27.2-14.3c3.7-5.4,5.6-11.7,5.6-18.2C134.6,77,119.9,62.5,101.8,62.5z"/><path fill="#000000" d="M88.1,160.8c0,3.6,2.9,6.6,6.6,6.6c3.6,0,6.6-2.9,6.6-6.6s-2.9-6.6-6.6-6.6C91.1,154.2,88.1,157.2,88.1,160.8z"/>
  </g>
</svg>