<?xml version="1.0" encoding="iso-8859-1"?>
<!-- Uploaded to: SVG Repo, www.svgrepo.com, Generator: SVG Repo Mixer Tools -->
<svg version="1.1" id="Layer_1" xmlns="http://www.w3.org/2000/svg" xmlns:xlink="http://www.w3.org/1999/xlink" 
	 viewBox="0 0 511.984 511.984" xml:space="preserve">
<rect x="21.328" y="261.32" style="fill:#48CFAD;" width="255.99" height="42.662"/>
<rect y="218.65" style="fill:#A0D468;" width="255.99" height="42.67"/>
<rect x="21.328" y="176" style="fill:#ED5564;" width="255.99" height="42.655"/>
<rect y="133.33" style="fill:#5D9CEC;" width="255.99" height="42.67"/>
<rect x="21.328" y="90.66" style="fill:#A0D468;" width="255.99" height="42.671"/>
<rect y="303.98" style="fill:#ED5564;" width="255.99" height="42.656"/>
<rect x="21.328" y="346.64" style="fill:#FFCE54;" width="255.99" height="42.686"/>
<path style="fill:#967ADC;" d="M373.316,143.997c-76.451,0-138.651,62.201-138.651,138.645c0,76.465,62.2,138.682,138.651,138.682
	c76.467,0,138.668-62.217,138.668-138.682C511.984,206.198,449.783,143.997,373.316,143.997z"/>
<path style="fill:#AC92EB;" d="M373.316,122.655c-76.451,0-138.651,62.201-138.651,138.667c0,76.443,62.2,138.66,138.651,138.66
	c76.467,0,138.668-62.217,138.668-138.66C511.984,184.856,449.783,122.655,373.316,122.655z"/>
<path style="fill:#967ADC;" d="M498.375,201.433c-3.094-6.437-6.688-12.609-10.703-18.453l-85.217,49.202l49.203-85.216
	c-5.844-4.015-12.016-7.609-18.453-10.703l-49.217,85.248v-98.45c-3.516-0.266-7.078-0.406-10.672-0.406
	c-3.578,0-7.141,0.141-10.656,0.406v98.45l-49.217-85.248c-6.453,3.109-12.609,6.688-18.453,10.703l49.201,85.216l-85.215-49.202
	c-4.031,5.859-7.609,12.016-10.703,18.453l85.232,49.217H235.07c-0.281,3.531-0.406,7.078-0.406,10.671s0.125,7.141,0.406,10.664
	l98.435-0.008l-85.232,49.225c3.093,6.438,6.671,12.594,10.703,18.438l85.199-49.188l-49.186,85.217
	c5.844,4.031,12,7.594,18.453,10.688l49.217-85.248v98.467c3.516,0.281,7.078,0.406,10.656,0.406c3.594,0,7.156-0.125,10.672-0.406
	V301.14l49.217,85.217c6.438-3.094,12.609-6.656,18.453-10.688l-49.188-85.217l85.201,49.219
	c4.016-5.875,7.609-12.031,10.703-18.469l-85.248-49.225h98.451c0.266-3.516,0.406-7.078,0.406-10.656
	c0-3.594-0.141-7.156-0.406-10.671h-98.451L498.375,201.433z M383.988,242.838v-7.922l6.875,3.953L383.988,242.838z"/>
<path style="fill:#E6E9ED;" d="M479.984,261.322c0,58.912-47.748,106.66-106.668,106.66c-58.904,0-106.652-47.748-106.652-106.66
	c0-58.904,47.748-106.668,106.652-106.668C432.236,154.654,479.984,202.418,479.984,261.322z"/>
<path style="fill:#AC92EB;" d="M447.986,261.322c0,41.225-33.422,74.662-74.67,74.662c-41.232,0-74.654-33.438-74.654-74.662
	c0-41.233,33.422-74.669,74.654-74.669C414.564,186.653,447.986,220.089,447.986,261.322z"/>
<polygon style="fill:#967ADC;" points="373.316,288.203 346.801,302.14 351.863,272.611 330.412,251.682 360.066,247.369 
	373.316,220.511 386.582,247.369 416.236,251.682 394.785,272.611 399.847,302.14 "/>
</svg>