<svg version="1.1" xmlns="http://www.w3.org/2000/svg" width="256" height="256">
  <metadata> Svg Vector Icons : http://www.onlinewebfonts.com/icon </metadata>
  <g>
      <path fill="#000000" d="M26.3,213.5c-4.5,0-8.1-3.7-8.1-8.1V42.6c0-4.5,3.6-8.1,8.1-8.1h16.3v8.1c0,4.5,3.6,8.1,8.1,8.1h8.1c4.5,0,8.1-3.6,8.1-8.1v-8.1h28.5v8.1c0,4.5,3.6,8.1,8.1,8.1h8.1c4.5,0,8.1-3.6,8.1-8.1v-8.1h28.5v8.1c0,4.5,3.6,8.1,8.1,8.1h8.1c4.5,0,8.1-3.6,8.1-8.1v-8.1h16.3c4.5,0,8.1,3.7,8.1,8.1v45.7c2.8,1,5.5,2.1,8.1,3.4V42.6c0-9-7.3-16.3-16.3-16.3h-16.3v-8.1c0-4.5-3.6-8.1-8.1-8.1h-8.1c-4.5,0-8.1,3.6-8.1,8.1v8.1h-28.5v-8.1c0-4.5-3.6-8.1-8.1-8.1h-8.1c-4.5,0-8.1,3.6-8.1,8.1v8.1H67v-8.1c0-4.5-3.6-8.1-8.1-8.1h-8.1c-4.5,0-8.1,3.6-8.1,8.1v8.1H26.3c-9,0-16.3,7.3-16.3,16.3v162.7c0,9,7.3,16.3,16.3,16.3h75.4c-2-2.6-3.9-5.3-5.7-8.1H26.3L26.3,213.5z M156.5,34.4v-8.1v-8.1h8.1v8.1v8.1v8.1h-8.1V34.4z M103.6,34.4v-8.1v-8.1h8.1v8.1v8.1v8.1h-8.1V34.4z M50.7,34.4v-8.1v-8.1h8.1v8.1v8.1v8.1h-8.1V34.4z"/><path fill="#000000" d="M168.7,91.4c-42.7,0-77.3,34.6-77.3,77.3c0,42.7,34.6,77.3,77.3,77.3c42.7,0,77.3-34.6,77.3-77.3C246,126,211.4,91.4,168.7,91.4z M168.7,237.9c-38.1,0-69.2-31-69.2-69.2c0-38.1,31-69.2,69.2-69.2c38.1,0,69.2,31,69.2,69.2C237.9,206.9,206.8,237.9,168.7,237.9z"/><path fill="#000000" d="M172.8,156.5v-40.7h-8.1v40.7c-4.5,0-8.1,3.6-8.1,8.1v8.1c0,4.5,3.6,8.1,8.1,8.1h8.1c4.5,0,8.1-3.6,8.1-8.1h32.6v-8.1h-32.6C180.9,160.1,177.2,156.5,172.8,156.5z M172.8,172.8h-8.1v-8.1h8.1V172.8z"/><path fill="#000000" d="M75.1,91.4c0-4.5-3.6-8.1-8.1-8.1h-8.1c-4.5,0-8.1,3.6-8.1,8.1v8.1c0,4.5,3.6,8.1,8.1,8.1H67c4.5,0,8.1-3.6,8.1-8.1V91.4z M67,99.5h-8.1v-8.1H67V99.5z"/><path fill="#000000" d="M99.5,83.2c-4.5,0-8.1,3.6-8.1,8.1v8.1c0,4.5,3.6,8.1,8.1,8.1h8.1c4.5,0,8.1-3.6,8.1-8.1v-8.1c0-4.5-3.6-8.1-8.1-8.1H99.5z M107.7,99.5h-8.1v-8.1h8.1V99.5z"/><path fill="#000000" d="M67,140.2h-8.1c-4.5,0-8.1,3.6-8.1,8.1v8.1c0,4.5,3.6,8.1,8.1,8.1H67c4.5,0,8.1-3.6,8.1-8.1v-8.1C75.1,143.9,71.5,140.2,67,140.2z M67,156.5h-8.1v-8.1H67V156.5z"/>
  </g>
</svg>