<?xml version="1.0" standalone="no"?>
<!DOCTYPE svg PUBLIC "-//W3C//DTD SVG 20010904//EN"
 "http://www.w3.org/TR/2001/REC-SVG-20010904/DTD/svg10.dtd">
<svg version="1.0" xmlns="http://www.w3.org/2000/svg"
 width="700pt" height="800pt" viewBox="100 50 800 850"
 preserveAspectRatio="xMidYMid meet">

<g transform="translate(0,1024) scale(0.1,-0.1)"
fill="#000000" stroke="none">
<path d="M2451 9379 c-354 -46 -656 -326 -725 -674 -15 -73 -16 -389 -14
-3405 3 -3134 4 -3328 21 -3385 29 -99 111 -255 175 -330 107 -127 249 -219
417 -272 l90 -28 2761 -3 2761 -2 54 28 c39 20 62 41 84 77 l30 48 3 3226 c2
2420 0 3239 -9 3280 -9 43 -21 63 -58 101 -58 58 -101 70 -250 70 l-111 0 0
554 0 554 -28 53 c-20 39 -41 62 -77 84 l-48 30 -2506 1 c-1378 1 -2535 -2
-2570 -7z m4799 -844 l0 -425 -2378 0 c-2157 0 -2383 2 -2433 16 -76 23 -128
56 -188 119 -217 229 -118 598 187 696 55 17 157 18 2435 18 l2377 1 0 -425z
m-5060 -770 c27 -14 88 -37 137 -52 l88 -28 2633 -3 2632 -2 0 -2985 0 -2985
-2593 0 c-2354 0 -2598 1 -2648 16 -76 23 -128 56 -188 119 -60 63 -98 139
-111 222 -10 61 -15 5723 -5 5723 3 0 28 -11 55 -25z"/>
<path d="M3530 6373 c-40 -21 -63 -42 -85 -78 l-30 -48 -3 -1306 c-2 -967 0
-1320 8 -1360 23 -104 135 -182 237 -165 21 3 632 304 1358 668 l1320 661 28
46 c56 91 45 192 -28 264 -33 32 -290 165 -1341 689 -1456 727 -1358 685
-1464 629z m2170 -1468 c0 -3 -418 -214 -930 -470 l-930 -465 0 935 0 935 930
-465 c512 -256 930 -467 930 -470z"/>
</g>
</svg>
