<?xml version="1.0" encoding="utf-8"?>
<!-- Svg Vector Icons : http://www.onlinewebfonts.com/icon -->
<!DOCTYPE svg PUBLIC "-//W3C//DTD SVG 1.1//EN" "http://www.w3.org/Graphics/SVG/1.1/DTD/svg11.dtd">
<svg version="1.1" xmlns="http://www.w3.org/2000/svg" xmlns:xlink="http://www.w3.org/1999/xlink" x="0px" y="0px" viewBox="-25 -25 1050 1050" enable-background="new -25 -25 1050 1050" xml:space="preserve">
<metadata> Svg Vector Icons : http://www.onlinewebfonts.com/icon </metadata>
<g><g fill="#ff1100" transform="translate(0.000000,512.000000) scale(0.100000,-0.100000)"><path d="M4530.1,5007.9C3375.4,4889,2341.7,4400,1530.4,3588.6C751.6,2809.9,287.5,1860.5,124.4,723.1c-32.6-226.3-32.6-982,0-1208.3c163-1137.4,629.1-2086.8,1405.9-2865.5c776.8-776.8,1730-1244.8,2865.5-1405.9c226.3-32.6,982-32.6,1208.3,0c939.8,134.3,1779.9,491,2474.2,1053c987.8,797.9,1611.1,1916.1,1797.2,3218.4c32.6,226.3,32.6,982,0,1208.3c-161.1,1135.5-629.1,2088.7-1405.9,2865.5c-759.5,759.5-1687.8,1223.7-2779.2,1392.5C5448.8,5017.5,4775.6,5034.8,4530.1,5007.9z M5258.9,3107.2c289.6-59.5,594.6-295.4,738.4-571.6c132.3-255.1,134.3-278.1,134.3-1478.8c0-999.3-1.9-1076-38.4-1214.1c-53.7-211-141.9-364.4-297.3-519.8c-287.7-287.7-682.8-397-1072.1-297.3c-205.2,51.8-362.5,140-512.1,287.7c-138.1,136.2-209.1,245.5-283.9,439.2L3878-120.8l-5.8,1102.9c-3.8,753.8,0,1143.1,15.3,1227.5c34.5,195.6,145.8,412.4,293.4,567.7C4468.7,3082.3,4837,3195.4,5258.9,3107.2z M3494.4-57.5c69.1-634.9,485.3-1114.4,1112.4-1283.1c214.8-57.5,569.6-57.5,786.4,0c617.6,163,1043.4,654,1112.4,1283.1l13.4,118.9h180.3h180.3V-44.1c0-354.8-189.9-796-471.8-1100.9c-280-303-715.4-533.2-1114.4-586.9l-101.7-13.4v-391.3v-391.3h374h374v-191.8v-191.8H5000h-939.8v191.8v191.8h374h374v391.3v391.3l-99.7,13.4c-404.7,55.6-840.1,285.8-1125.8,596.5c-278.1,305-462.2,738.4-462.2,1091.3V61.4h180.3h180.3L3494.4-57.5z"/></g></g>
</svg>