<?xml version="1.0" standalone="no"?>
<!DOCTYPE svg PUBLIC "-//W3C//DTD SVG 20010904//EN"
 "http://www.w3.org/TR/2001/REC-SVG-20010904/DTD/svg10.dtd">
<svg version="1.0" xmlns="http://www.w3.org/2000/svg"
 width="359.000000pt" height="350.000000pt" viewBox="0 0 359.000000 350.000000"
 preserveAspectRatio="xMidYMid meet">

<g transform="translate(0.000000,350.000000) scale(0.100000,-0.100000)"
fill="#000000" stroke="none">
<path d="M0 1750 l0 -1750 1795 0 1795 0 0 1750 0 1750 -1795 0 -1795 0 0
-1750z m1826 1599 c22 -17 43 -44 47 -61 12 -43 3 -45 -23 -4 -12 20 -38 49
-58 66 -49 40 -17 40 34 -1z m-86 4 c0 -17 -50 -64 -60 -58 -8 5 -2 17 16 36
27 28 44 37 44 22z m76 -83 l48 -45 -30 -8 c-26 -8 -34 -4 -67 27 -40 38 -43
46 -25 64 16 16 18 15 74 -38z m280 15 c179 -31 421 -130 587 -239 48 -32 139
-106 202 -163 110 -102 145 -141 145 -163 0 -20 -79 30 -115 74 -40 49 -64 63
-77 44 -13 -21 -10 -27 26 -42 30 -13 57 -36 41 -36 -4 0 -33 15 -66 33 -62
34 -76 57 -34 57 30 0 34 25 6 39 -17 10 -86 62 -123 95 -34 30 -60 39 -69 25
-14 -23 -4 -34 34 -37 25 -2 38 -9 42 -22 3 -11 23 -33 43 -49 20 -17 33 -33
29 -37 -3 -4 -26 9 -49 27 -46 37 -95 70 -103 69 -13 -1 -65 31 -65 40 0 5 11
12 25 16 14 4 24 11 22 18 -2 6 -46 33 -97 59 -147 76 -210 92 -210 54 0 -9
15 -17 38 -21 52 -8 112 -34 112 -47 0 -7 -7 -8 -17 -4 -50 19 -202 65 -217
65 -9 0 -16 7 -16 15 0 17 27 20 32 4 3 -9 10 -9 27 1 20 10 21 14 10 25 -13
12 -100 37 -106 31 -2 -2 1 -15 6 -30 12 -31 11 -31 -79 -9 -36 8 -86 15 -112
14 -26 -1 -50 4 -54 10 -5 9 3 11 29 6 28 -4 37 -2 37 9 0 10 5 12 18 5 9 -5
36 -15 60 -22 34 -10 45 -10 55 0 21 22 -20 41 -89 41 -54 0 -65 3 -78 22 -9
12 -16 26 -16 30 0 13 70 9 166 -7z m-486 -19 c0 -21 -5 -24 -57 -29 -78 -8
-135 -26 -130 -40 5 -17 35 -21 52 -7 17 14 165 22 165 9 0 -5 -9 -9 -20 -9
-27 0 -274 -64 -367 -95 -87 -29 -83 -29 -83 -10 0 8 8 15 19 15 10 0 32 7 47
15 16 8 37 15 47 15 11 0 43 7 73 16 49 14 52 17 41 35 -20 33 -83 17 -70 -18
4 -11 1 -12 -21 -2 -22 10 -36 7 -103 -22 -104 -45 -185 -91 -191 -108 -7 -21
52 -7 78 19 21 21 45 26 54 11 3 -4 -14 -17 -37 -27 -23 -10 -53 -26 -66 -36
-31 -23 -41 -23 -41 2 0 28 -31 26 -60 -5 -13 -14 -31 -25 -40 -25 -17 0 -40
-18 -40 -32 0 -4 6 -8 14 -8 24 0 30 -22 11 -37 -26 -18 -35 -16 -35 7 0 22
-12 25 -41 10 -23 -13 -26 -40 -4 -40 21 0 19 -17 -5 -30 -16 -8 -20 -8 -20 4
0 29 -22 28 -50 -2 -15 -17 -53 -47 -84 -67 -52 -33 -86 -76 -86 -107 0 -19
-39 -91 -57 -105 -9 -7 -16 -25 -17 -40 -1 -17 -7 -28 -15 -28 -13 0 -150
-258 -165 -311 -6 -18 -2 -21 20 -21 22 0 25 3 21 24 -3 16 1 27 14 34 20 10
26 39 9 39 -12 0 14 55 38 82 16 19 32 15 32 -7 0 -8 -18 -53 -40 -100 -22
-47 -40 -93 -40 -101 0 -8 -4 -14 -10 -14 -5 0 -10 4 -10 9 0 5 -9 11 -20 14
-27 7 -36 -12 -51 -110 -10 -69 -16 -83 -36 -92 -27 -13 -28 -8 -13 89 53 336
322 746 638 973 172 124 420 236 589 266 148 27 163 27 163 -3z m149 -73 c29
-28 8 -32 -29 -6 -30 20 -40 33 -40 52 0 15 14 5 69 -46z m221 -67 c0 -9 -30
-14 -35 -6 -4 6 3 10 14 10 12 0 21 -2 21 -4z m-345 -16 c-3 -5 -19 -10 -36
-10 -16 0 -29 5 -29 10 0 6 16 10 36 10 21 0 33 -4 29 -10z m909 -76 c13 -34
-32 -25 -67 14 -18 20 -18 20 22 10 22 -6 42 -16 45 -24z m-1229 6 c-3 -5 -13
-10 -21 -10 -8 0 -12 5 -9 10 3 6 13 10 21 10 8 0 12 -4 9 -10z m533 -55 c2
-2 -3 -16 -11 -32 -13 -24 -31 -78 -112 -343 -8 -25 -21 -62 -30 -84 l-16 -38
-25 23 c-13 12 -38 45 -55 71 l-32 49 -24 -36 c-13 -19 -28 -35 -33 -35 -19 0
-70 -53 -70 -74 0 -29 27 -66 49 -66 10 0 24 -15 34 -35 20 -43 35 -44 50 -6
7 20 21 32 46 40 19 5 36 9 38 7 6 -6 -108 -345 -153 -457 -26 -63 -59 -150
-74 -194 -16 -44 -45 -119 -64 -167 -47 -113 -76 -227 -79 -310 -2 -58 1 -70
22 -92 24 -25 136 -74 225 -98 56 -15 59 -27 9 -30 -44 -2 -53 -3 -113 -12
-25 -3 -75 -8 -113 -10 -77 -5 -78 -4 -96 81 -12 60 -35 276 -51 483 -15 201
-56 545 -85 730 -14 85 -32 200 -40 255 -8 55 -19 127 -25 160 -13 81 -13 138
3 157 9 11 50 19 155 30 l142 14 -6 -256 c-3 -140 -8 -261 -10 -268 -3 -10
-10 -9 -33 4 -28 16 -31 16 -55 0 -16 -10 -26 -26 -26 -40 0 -27 23 -50 42
-43 7 2 21 0 31 -5 14 -7 17 -4 17 14 0 16 3 19 11 11 8 -8 8 -54 -1 -171 -10
-122 -10 -193 -1 -308 7 -82 13 -158 16 -169 2 -11 4 -41 4 -67 1 -28 6 -48
12 -48 7 0 9 12 4 36 -3 20 -3 34 2 31 4 -3 7 72 5 166 -2 95 2 233 7 307 10
124 19 274 39 659 10 196 -7 185 262 175 113 -3 206 -8 208 -9z m202 -14 c132
-32 599 -181 930 -296 163 -57 186 -94 134 -218 -41 -99 -130 -336 -204 -542
-84 -233 -206 -554 -249 -655 -18 -41 -46 -110 -62 -154 -16 -43 -38 -94 -49
-113 -11 -19 -20 -38 -20 -42 0 -5 42 -11 93 -13 66 -4 120 -14 192 -37 55
-17 145 -46 200 -62 140 -43 169 -55 173 -69 3 -8 -1 -11 -10 -8 -33 13 -39
-7 -40 -143 -1 -74 2 -177 6 -229 6 -65 5 -92 -2 -85 -20 19 -30 160 -24 313
l7 152 -40 15 c-146 54 -272 88 -406 110 -200 33 -262 48 -267 64 -3 10 6 12
47 6 34 -5 51 -3 51 4 0 6 -10 13 -22 15 -56 12 -183 26 -228 26 -41 0 -50 3
-50 18 0 14 -2 14 -9 3 -7 -12 -13 -12 -24 -3 -7 7 -17 9 -20 6 -3 -3 -12 -2
-19 2 -17 11 -28 13 -108 19 -97 7 -155 20 -380 87 -235 69 -273 86 -296 129
-29 58 -2 150 196 664 41 107 196 557 237 690 13 44 40 130 59 192 36 118 70
173 107 173 12 0 56 -8 97 -19z m-1070 1 c0 -5 -9 -17 -19 -26 -21 -19 -41
-14 -41 9 0 12 9 16 53 24 4 0 7 -3 7 -7z m1518 -27 c6 -3 12 -14 12 -25 0
-26 -24 -26 -91 0 -29 12 -68 25 -88 29 -24 6 -5 7 59 4 52 -2 101 -6 108 -8z
m-1544 -142 c3 -16 15 -93 26 -173 12 -80 26 -169 32 -198 14 -66 8 -72 -77
-72 l-60 0 -33 -54 c-17 -30 -32 -58 -32 -63 0 -7 101 -64 161 -91 4 -2 20 22
35 52 30 60 43 58 44 -4 0 -19 12 -114 25 -210 23 -157 54 -472 70 -697 4 -46
9 -93 11 -105 3 -13 10 -42 15 -66 4 -23 13 -51 19 -62 9 -17 8 -20 -9 -20
-11 0 -26 -3 -35 -6 -10 -4 -22 8 -39 43 -39 76 -122 308 -152 423 -16 58 -39
133 -51 167 -13 35 -47 149 -75 255 -28 106 -68 245 -89 308 -93 281 -123 387
-124 439 l-1 54 65 25 c68 26 236 80 257 81 6 1 14 -11 17 -26z m-392 -246
c-6 -7 -29 -50 -53 -97 -51 -103 -47 -97 -62 -81 -9 11 -9 14 1 18 6 3 12 11
12 19 0 8 7 14 15 14 8 0 17 14 21 35 3 19 10 35 14 35 5 0 12 10 15 23 11 36
38 73 43 59 2 -7 -1 -18 -6 -25z m2683 -167 c68 -135 145 -348 145 -402 0 -31
-39 -22 -46 10 -20 91 -81 265 -125 352 -47 94 -55 130 -29 130 5 0 30 -40 55
-90z m-57 -56 c24 -17 28 -34 11 -51 -9 -9 -18 -3 -35 23 -13 19 -24 37 -24
39 0 10 27 4 48 -11z m-14 -224 c3 -14 -12 13 -34 59 -22 46 -40 87 -40 90 1
11 67 -123 74 -149z m69 137 c2 -7 -4 -23 -14 -35 l-18 -23 -11 21 c-6 12 -9
28 -6 36 7 17 42 19 49 1z m-2568 -179 c-36 -128 -35 -127 -45 -103 -9 25 19
144 45 195 30 56 30 13 0 -92z m2594 108 c10 -12 8 -17 -8 -25 -26 -14 -28
-14 -35 6 -4 9 -1 20 6 25 18 11 24 10 37 -6z m21 -71 c0 -7 -8 -16 -17 -19
-18 -7 -38 7 -30 21 9 14 47 13 47 -2z m-2954 -10 c19 -14 19 -14 -1 -15 -11
-1 -14 -4 -7 -7 16 -6 16 -33 -1 -33 -17 0 -42 45 -33 59 9 15 18 14 42 -4z
m2967 -37 c6 -21 2 -36 -7 -27 -10 11 -16 49 -8 49 5 0 12 -10 15 -22z m-33
-10 c0 -19 -2 -20 -10 -8 -13 19 -13 30 0 30 6 0 10 -10 10 -22z m-73 -20 c-3
-8 -6 -5 -6 6 -1 11 2 17 5 13 3 -3 4 -12 1 -19z m-2867 -16 c0 -15 -28 -47
-35 -40 -11 11 5 48 21 48 8 0 14 -4 14 -8z m208 -41 c51 -26 96 -61 78 -61
-11 0 -119 57 -141 74 -33 25 1 18 63 -13z m2777 19 c3 -5 -3 -10 -14 -10 -11
0 -23 5 -26 10 -3 6 3 10 14 10 11 0 23 -4 26 -10z m-2857 -32 c20 -20 14 -23
-46 -24 -109 -1 -216 -73 -242 -161 -34 -119 -21 -170 67 -255 54 -53 105 -78
160 -78 32 0 44 7 90 56 63 66 78 111 70 207 -5 51 -14 83 -37 124 -21 37 -28
59 -22 65 15 15 64 -22 147 -108 58 -61 67 -74 51 -78 -28 -7 -77 5 -83 20 -6
17 -21 18 -20 2 4 -43 -18 -158 -36 -187 -14 -24 -16 -33 -6 -29 21 6 60 89
53 111 -5 17 -3 17 25 -4 30 -22 30 -23 15 -48 -39 -61 -66 -90 -110 -120 -42
-28 -55 -31 -122 -31 -89 0 -125 15 -192 80 -71 69 -85 101 -84 191 1 64 5 84
27 122 44 74 99 112 207 143 59 16 74 16 88 2z m2861 -11 c56 -15 119 -71 150
-132 31 -62 39 -157 18 -205 -15 -33 -16 -33 -9 -5 20 88 -10 204 -66 258 -37
36 -103 63 -190 78 -48 8 -68 15 -60 21 15 10 91 3 157 -15z m-249 -7 c0 -6
-10 -14 -23 -19 -13 -5 -38 -21 -55 -36 -18 -15 -35 -25 -39 -22 -11 12 7 38
34 47 16 6 39 17 53 25 30 18 30 18 30 5z m40 -105 c-21 -41 -41 -92 -45 -114
-7 -44 15 -136 42 -177 8 -13 11 -24 7 -24 -12 0 -54 66 -54 84 0 8 -4 18 -10
21 -5 3 -10 31 -10 61 0 57 19 115 47 146 9 10 14 21 11 24 -8 7 -68 -81 -68
-100 0 -8 -4 -18 -10 -21 -5 -3 -10 -15 -10 -26 0 -22 -1 -23 -35 -7 -29 13
-31 27 -7 54 9 10 35 41 56 68 38 46 89 86 112 86 6 0 -6 -34 -26 -75z m-2375
21 c0 -13 -3 -22 -7 -19 -5 2 -8 13 -8 24 0 10 3 19 8 19 4 0 7 -11 7 -24z
m2490 -15 c-3 -6 4 -15 15 -21 11 -6 18 -15 15 -20 -3 -6 1 -7 9 -4 22 8 74
-23 91 -56 17 -34 20 -76 4 -85 -6 -4 -8 -13 -5 -21 7 -18 -25 -34 -55 -27
-19 5 -22 3 -12 -7 15 -16 0 -40 -24 -40 -14 0 -15 5 -2 45 7 23 -14 157 -22
144 -5 -8 -9 -24 -9 -37 0 -14 -4 -21 -11 -16 -8 4 -9 0 -4 -15 7 -24 6 -25
-29 -11 -33 12 -33 27 -1 42 30 14 33 38 4 45 -14 4 -18 11 -14 22 4 9 12 28
17 44 5 15 17 27 25 27 8 0 12 -4 8 -9z m-2771 -38 c4 -10 -1 -23 -14 -35 -27
-25 -25 -42 5 -65 l24 -18 -20 -25 c-20 -24 -20 -24 -14 -2 4 15 1 24 -10 28
-26 10 -26 1 0 -51 24 -51 24 -80 -1 -48 -14 17 -14 16 -12 -7 3 -23 0 -25
-40 -24 -54 1 -116 47 -118 88 -1 21 3 25 17 21 9 -3 20 -1 24 5 3 6 -3 10
-14 10 -17 0 -21 6 -21 35 0 44 26 72 77 81 21 3 45 10 53 15 25 14 57 10 64
-8z m335 -103 c-15 -10 -41 -1 -34 10 3 5 14 6 26 3 15 -4 17 -8 8 -13z m2651
-15 c0 -8 -7 -15 -15 -15 -26 0 -18 20 13 29 1 1 2 -6 2 -14z m-212 -63 c10
-23 10 -29 -2 -38 -9 -6 -13 -19 -9 -32 4 -15 1 -22 -10 -22 -18 0 -31 57 -21
94 8 34 26 33 42 -2z m-188 -44 c35 -65 75 -107 123 -128 52 -24 100 -18 181
22 71 36 70 16 -1 -24 -72 -41 -158 -43 -235 -5 -45 22 -64 40 -94 85 -20 31
-46 67 -56 78 l-19 21 38 -1 c35 -1 40 -5 63 -48z m-2270 -48 c0 -5 -4 -10
-10 -10 -5 0 -10 5 -10 10 0 6 5 10 10 10 6 0 10 -4 10 -10z m2110 3 c0 -5 -5
-15 -10 -23 -8 -12 -10 -11 -10 8 0 12 5 22 10 22 6 0 10 -3 10 -7z m-2060 -7
c0 -2 -8 -10 -17 -17 -16 -13 -17 -12 -4 4 13 16 21 21 21 13z m2127 -115 c-9
-79 -34 -144 -101 -255 -55 -92 -129 -176 -143 -162 -5 4 4 18 20 31 27 24 37
43 15 29 -7 -4 -8 -3 -4 5 4 6 11 9 16 6 5 -3 23 15 39 39 35 50 39 65 14 45
-16 -13 -17 -12 -4 3 7 10 17 15 22 13 4 -3 7 3 6 12 -1 19 85 225 91 218 8
-8 -41 -141 -65 -179 -14 -21 -20 -35 -14 -32 35 22 101 190 101 258 0 16 3
28 6 28 4 0 4 -27 1 -59z m-2684 -4 c8 -12 22 -52 31 -89 42 -167 117 -307
128 -237 7 51 29 24 89 -113 7 -14 3 -16 -27 -11 -41 7 -43 -3 -9 -57 29 -46
30 -50 11 -50 -30 0 -67 49 -129 170 -67 134 -121 282 -131 367 -6 44 -4 52 8
47 8 -3 21 -15 29 -27z m431 -69 c23 -52 70 -135 104 -184 49 -72 102 -170
102 -190 0 -32 -153 182 -210 295 -29 58 -61 161 -54 173 9 14 11 9 58 -94z
m2688 45 c-11 -108 -90 -301 -183 -448 -43 -68 -52 -73 -106 -53 -35 13 -42
28 -19 47 12 10 17 8 26 -9 15 -28 54 -23 58 6 2 17 -3 23 -31 28 l-34 6 62
126 c34 69 73 161 86 204 24 81 49 106 49 50 0 -19 -6 -33 -16 -37 -11 -4 -14
-13 -10 -29 7 -25 -9 -60 -34 -81 -12 -9 -13 -14 -2 -24 18 -19 15 -28 -14
-39 -23 -9 -24 -13 -13 -26 11 -14 11 -18 -4 -29 -9 -7 -17 -22 -17 -35 0 -15
-5 -20 -14 -17 -8 3 -21 -4 -30 -18 -14 -22 -14 -23 11 -30 14 -3 27 -5 28 -3
23 24 129 276 151 358 27 99 65 135 56 53z m-2822 -28 c0 -9 -9 -15 -24 -15
-28 0 -43 16 -24 23 26 11 48 7 48 -8z m2520 5 c12 -8 11 -10 -7 -10 -12 0
-25 5 -28 10 -8 13 15 13 35 0z m-2716 -32 c12 -27 24 -77 28 -115 0 -5 7 -17
14 -28 20 -28 17 -52 -6 -58 -14 -4 -20 0 -21 11 -2 23 -2 24 6 45 5 12 2 17
-9 17 -13 0 -15 4 -6 19 15 29 13 34 -15 27 -26 -7 -26 -6 -10 23 21 41 19 51
-10 51 -29 0 -33 15 -7 29 9 6 18 11 19 11 1 0 9 -15 17 -32z m125 -173 c0 -5
-6 1 -14 15 -13 26 -46 140 -44 156 1 10 57 -156 58 -171z m421 145 c0 -5 -5
-10 -11 -10 -5 0 -7 5 -4 10 3 6 8 10 11 10 2 0 4 -4 4 -10z m-311 -76 c13
-30 21 -58 17 -61 -8 -8 -8 -7 -34 49 -23 51 -27 68 -14 68 5 0 19 -25 31 -56z
m2491 -130 c-30 -58 -58 -108 -62 -110 -5 -3 17 46 49 110 31 63 59 113 62
110 3 -2 -19 -52 -49 -110z m-2564 1 c14 -25 24 -48 22 -51 -3 -2 -17 18 -32
46 -34 62 -26 66 10 5z m140 -22 c-8 -9 -47 28 -40 38 2 5 14 -1 25 -12 11
-11 18 -23 15 -26z m1414 -61 c23 -6 -58 -9 -240 -10 -323 0 -538 -18 -730
-61 -74 -16 -157 -32 -185 -36 -47 -6 -153 -37 -428 -124 -112 -35 -145 -38
-113 -11 27 21 460 151 586 174 197 38 387 67 490 76 116 10 572 4 620 -8z
m93 -19 c-7 -2 -21 -2 -30 0 -10 3 -4 5 12 5 17 0 24 -2 18 -5z m160 -20 c-13
-2 -35 -2 -50 0 -16 2 -5 4 22 4 28 0 40 -2 28 -4z m-575 -104 c-5 -71 5 -69
57 11 l39 60 53 0 c29 0 53 -2 53 -5 0 -3 -27 -32 -60 -64 -57 -56 -71 -85
-51 -106 5 -6 29 -49 55 -97 l46 -88 -47 1 -48 0 -35 71 c-19 40 -41 73 -47
76 -16 5 -18 -74 -3 -112 l10 -26 -59 0 -58 0 9 53 c6 28 8 109 6 179 l-4 127
41 3 c47 3 49 -1 43 -83z m-137 61 c23 -13 26 -67 5 -95 -14 -19 -15 -19 -40
8 -31 34 -60 34 -91 2 -21 -20 -25 -34 -25 -83 0 -102 60 -145 121 -86 33 31
49 25 49 -20 0 -59 -60 -93 -133 -76 -138 31 -172 245 -54 331 32 24 50 29 94
29 30 0 63 -5 74 -10z m537 -135 c-3 -156 -18 -200 -71 -218 -59 -19 -137 30
-137 88 0 60 50 73 71 18 13 -34 29 -45 46 -31 9 8 13 48 13 148 l0 138 41 -1
41 -2 -4 -140z m-1613 114 c12 -19 -3 -22 -27 -5 l-22 16 21 0 c12 0 25 -5 28
-11z m775 -129 c23 -63 53 -137 67 -163 13 -27 23 -50 21 -52 -2 -2 -28 -5
-58 -6 l-55 -3 0 35 c0 33 -2 34 -40 37 -24 2 -48 -3 -60 -12 -17 -13 -18 -18
-7 -36 7 -12 11 -24 8 -27 -7 -8 -99 -24 -104 -19 -2 3 15 63 38 133 23 70 44
152 47 181 5 46 9 53 32 58 14 3 31 7 36 9 18 5 32 -19 75 -135z m1031 130
c12 0 22 -22 38 -82 12 -46 34 -130 51 -188 16 -58 29 -108 30 -112 0 -4 -12
-3 -26 2 -14 6 -39 10 -55 10 -29 0 -30 2 -24 29 3 17 1 39 -5 51 -9 17 -19
21 -53 18 -42 -3 -42 -3 -45 -44 l-3 -42 -42 5 c-23 3 -44 7 -46 9 -4 3 20 76
71 219 22 61 42 116 44 124 3 8 12 11 27 7 12 -3 29 -6 38 -6z m344 -72 c39
-13 40 -14 36 -53 -4 -56 -18 -80 -37 -64 -8 6 -14 17 -14 24 0 7 -14 18 -31
26 -92 38 -142 -113 -62 -187 30 -28 55 -30 77 -9 8 8 22 15 30 15 25 0 22
-76 -3 -90 -32 -17 -91 -11 -133 12 -54 31 -80 84 -86 176 l-5 72 52 51 c49
50 53 52 94 46 23 -3 60 -12 82 -19z m-1758 -125 c2 -75 5 -138 7 -141 10 -9
55 9 84 33 45 38 53 33 50 -27 l-3 -53 -85 -22 c-47 -13 -94 -25 -106 -28 -21
-6 -21 -3 -27 155 -3 96 -10 167 -16 173 -21 21 -11 36 27 40 20 2 44 4 52 5
13 2 15 -20 17 -135z m1932 81 c2 -2 -4 -30 -13 -62 -27 -96 -22 -104 29 -50
25 26 45 56 45 67 0 12 5 21 12 21 26 0 98 -33 98 -45 0 -7 -22 -33 -50 -58
-27 -25 -50 -52 -50 -61 0 -9 21 -61 47 -116 25 -55 43 -103 40 -106 -7 -8
-137 38 -137 48 0 5 5 8 10 8 16 0 12 30 -11 77 -11 24 -28 43 -36 43 -13 0
-15 -11 -11 -60 5 -67 5 -66 -62 -46 -29 9 -44 19 -41 27 12 40 31 231 28 277
l-4 52 51 -6 c28 -4 53 -8 55 -10z m-2092 -36 c26 -25 29 -56 8 -84 -19 -25
-19 -44 0 -44 8 0 22 -11 31 -25 34 -51 -8 -136 -83 -168 -90 -38 -175 -69
-180 -64 -2 3 0 29 6 59 13 63 0 261 -19 283 -10 12 -7 15 14 21 14 3 52 17
83 30 66 28 105 25 140 -8z m-320 -214 c-3 -110 -10 -190 -17 -201 -9 -15 -10
-12 -6 16 3 18 6 112 6 208 0 129 3 172 11 167 9 -5 10 -57 6 -190z m-27 152
c0 -2 -7 -9 -15 -16 -12 -10 -15 -10 -15 4 0 9 7 16 15 16 8 0 15 -2 15 -4z
m-215 -56 c-20 -22 -31 -20 -22 5 4 8 14 15 23 15 16 0 16 -2 -1 -20z m135 7
c-14 -7 -44 -18 -67 -25 -48 -14 -53 -26 -21 -43 12 -7 46 -35 75 -62 71 -67
71 -84 -4 -254 -9 -22 20 -15 189 41 266 89 528 154 723 181 66 9 149 21 185
27 36 6 180 11 320 11 228 1 282 -3 505 -31 324 -41 610 -112 875 -215 56 -22
86 -39 88 -51 3 -14 0 -16 -15 -8 -50 27 -315 114 -443 147 -422 107 -601 129
-1010 129 l-305 0 -200 -37 c-289 -53 -724 -168 -879 -234 -32 -13 -61 -22
-64 -18 -3 3 13 52 36 108 23 56 42 111 42 122 0 24 -49 73 -128 130 -29 20
-51 39 -49 41 7 7 141 52 157 53 8 1 4 -5 -10 -12z m2995 -7 c3 -5 2 -10 -4
-10 -5 0 -13 5 -16 10 -3 6 -2 10 4 10 5 0 13 -4 16 -10z m5 -35 c0 -8 -13
-21 -30 -30 -48 -25 -56 -17 -14 14 47 35 44 34 44 16z m-1820 -251 c0 -30 -4
-54 -8 -54 -19 0 -32 27 -32 65 0 46 5 56 26 48 10 -3 14 -22 14 -59z m111 25
c17 -33 -6 -79 -41 -79 -41 0 -55 54 -24 98 12 18 19 20 34 12 11 -6 25 -20
31 -31z m329 21 c-24 -24 -25 -49 -5 -76 20 -27 19 -34 -9 -34 -16 0 -26 7
-30 23 -16 60 1 107 39 107 l25 0 -20 -20z m109 -23 c13 -34 12 -40 -2 -55
-16 -15 -17 -13 -17 25 0 23 -4 44 -9 48 -6 3 -7 -9 -4 -30 4 -22 1 -41 -8
-51 -13 -15 -15 -13 -21 22 -13 75 -11 86 19 82 21 -2 31 -12 42 -41z m-201
15 c2 -7 -2 -10 -11 -6 -9 3 -25 0 -37 -6 -20 -11 -21 -10 -10 10 12 23 50 25
58 2z m-764 -8 c17 -6 22 -24 8 -24 -5 0 -17 7 -28 15 -19 15 -8 20 20 9z
m-61 -39 c59 -40 174 -87 260 -106 40 -8 54 -15 45 -21 -9 -6 -4 -8 14 -4 15
3 29 2 32 -3 3 -5 51 -9 106 -9 55 -1 105 -4 110 -7 11 -7 14 -58 3 -52 -5 3
-42 8 -83 11 -88 8 -139 19 -235 51 -138 47 -263 103 -298 136 -12 10 -25 19
-29 19 -5 0 -6 5 -3 10 10 16 23 12 78 -25z m667 7 c0 -10 7 -28 16 -40 17
-25 4 -30 -19 -7 -8 8 -17 11 -21 8 -3 -4 -6 7 -6 24 0 16 3 33 6 36 10 10 24
-2 24 -21z m746 13 c-26 -20 -76 -20 -76 0 0 11 12 15 48 15 43 -1 46 -2 28
-15z m-606 -16 c0 -11 -4 -17 -10 -14 -5 3 -10 13 -10 21 0 8 5 14 10 14 6 0
10 -9 10 -21z m-46 -32 c17 -28 17 -28 -3 -18 -25 14 -34 28 -26 42 4 6 8 9 9
7 1 -2 10 -16 20 -31z m566 20 c0 -15 -201 -82 -222 -74 -10 4 -9 6 2 9 92 30
130 44 160 59 42 22 60 24 60 6z m-1060 -27 l85 -28 -52 3 c-28 2 -58 7 -65
11 -7 5 -29 16 -48 26 -54 26 -14 20 80 -12z m1216 18 c4 -6 3 -8 -3 -5 -6 4
-13 1 -16 -7 -7 -19 -166 -95 -230 -111 -29 -7 -91 -24 -138 -38 -47 -14 -118
-29 -158 -33 l-72 -7 3 37 2 36 98 0 c53 0 121 6 150 14 178 47 246 70 282 97
42 31 70 37 82 17z m-656 -60 c0 -14 -19 1 -31 25 -12 22 -12 22 10 3 11 -11
21 -23 21 -28z m-396 -9 c8 -9 7 -10 -2 -4 -7 4 -28 7 -47 7 -24 0 -32 4 -29
13 6 15 60 4 78 -16z m637 -14 c0 -5 -20 -10 -43 -12 l-43 -2 35 13 c39 15 52
15 51 1z m-351 -5 c-20 -13 -33 -13 -25 0 3 6 14 10 23 10 15 0 15 -2 2 -10z
m235 -22 c-16 -4 -31 -5 -33 -3 -8 7 42 23 53 17 5 -3 -4 -9 -20 -14z m-165
-19 c0 -6 -7 -17 -15 -26 -12 -12 -19 -13 -30 -3 -20 16 -19 34 0 26 9 -3 18
1 21 9 6 16 24 11 24 -6z"/>
<path d="M390 2284 c0 -8 5 -12 10 -9 6 3 10 10 10 16 0 5 -4 9 -10 9 -5 0
-10 -7 -10 -16z"/>
<path d="M1550 2882 c-1 -30 -58 -164 -81 -188 -19 -20 -20 -24 -6 -29 32 -13
70 -1 78 25 8 22 8 23 -5 8 -7 -10 -19 -18 -25 -18 -8 0 -4 10 8 26 12 15 26
45 33 68 l12 41 7 -65 c3 -36 4 -71 2 -77 -4 -9 6 -13 32 -13 31 0 36 3 30 18
-18 44 -34 109 -41 158 -4 40 -11 53 -25 57 -13 4 -19 0 -19 -11z"/>
<path d="M1231 2587 c-13 -21 -12 -21 5 -5 10 10 16 20 13 22 -3 3 -11 -5 -18
-17z"/>
<path d="M1290 1151 c0 -5 7 -14 15 -21 12 -10 15 -9 15 4 0 11 5 15 13 10 6
-4 9 -3 4 1 -11 12 -47 17 -47 6z"/>
<path d="M1350 1140 c0 -5 5 -10 11 -10 5 0 7 5 4 10 -3 6 -8 10 -11 10 -2 0
-4 -4 -4 -10z"/>
<path d="M1335 1100 c11 -5 29 -8 40 -8 16 0 15 2 -5 8 -34 11 -60 11 -35 0z"/>
<path d="M1967 2862 c-24 -26 -21 -32 12 -26 33 7 43 -3 34 -35 -4 -17 -11
-21 -28 -17 -31 8 -39 -17 -14 -40 23 -21 21 -57 -3 -62 -9 -2 -29 11 -44 27
-21 24 -30 28 -41 19 -7 -6 -12 -15 -10 -21 5 -15 98 -47 136 -47 l34 0 -6 49
c-5 42 -2 55 19 86 29 43 30 51 7 63 -41 22 -79 23 -96 4z"/>
<path d="M1865 2606 c-46 -13 -55 -38 -31 -83 8 -16 17 -45 21 -66 4 -20 12
-37 19 -37 14 0 118 68 128 84 12 17 9 84 -3 92 -6 3 -22 1 -35 -6 -20 -11
-26 -10 -41 8 -16 18 -22 19 -58 8z"/>
<path d="M2109 2236 c-53 -19 -105 -62 -124 -103 -30 -62 -15 -120 124 -486
l11 -29 38 30 c20 16 78 53 127 82 212 124 240 151 239 233 0 56 -51 182 -85
213 -22 20 -53 10 -126 -42 l-48 -34 -17 52 c-21 60 -53 98 -82 98 -12 -1 -37
-7 -57 -14z"/>
<path d="M2490 1444 c-25 -8 -51 -22 -58 -32 -16 -21 -7 -82 19 -134 l19 -37
57 35 c31 19 60 34 65 34 4 0 8 6 8 13 0 15 -53 137 -60 136 -3 -1 -25 -7 -50
-15z"/>
<path d="M2374 1202 c13 -25 12 -34 -5 -82 -23 -69 -24 -87 -1 -99 22 -12 56
20 110 101 18 25 37 49 44 51 10 4 9 8 -2 16 -31 22 -46 11 -74 -54 -16 -36
-33 -68 -38 -72 -15 -8 -1 79 17 114 18 34 4 53 -36 53 -29 0 -29 0 -15 -28z"/>
<path d="M741 2622 c-10 -19 -8 -23 51 -111 15 -21 18 -22 23 -8 4 9 -2 29
-15 47 -12 16 -22 43 -22 60 -1 34 -22 40 -37 12z"/>
<path d="M846 2551 c-3 -5 -1 -23 5 -40 15 -43 4 -81 -22 -81 -12 0 -23 8 -26
20 -3 11 -12 20 -19 20 -18 0 -19 -59 -1 -66 20 -7 105 34 112 55 10 34 -34
117 -49 92z"/>
<path d="M656 2074 c-4 -14 -5 -28 -3 -31 3 -2 8 8 11 23 4 14 5 28 3 31 -3 2
-8 -8 -11 -23z"/>
<path d="M3275 1681 c-3 -5 -2 -12 2 -14 12 -8 63 4 63 14 0 12 -57 12 -65 0z"/>
<path d="M370 1685 c-8 -9 -10 -29 -7 -52 10 -60 22 -56 23 7 0 33 0 60 -1 60
-2 0 -8 -7 -15 -15z"/>
<path d="M294 1625 c11 -8 22 -12 25 -9 6 6 -19 24 -34 24 -5 -1 -1 -7 9 -15z"/>
<path d="M414 1036 c-10 -25 23 -66 51 -66 16 0 25 6 25 15 0 8 -3 15 -8 15
-4 0 -12 10 -17 22 -12 28 -43 36 -51 14z"/>
<path d="M1222 753 c-5 -16 -13 -36 -17 -45 -6 -15 -1 -18 28 -18 l36 0 -16
45 c-8 25 -16 45 -18 45 -2 0 -8 -12 -13 -27z"/>
<path d="M2297 753 c-3 -16 -9 -36 -12 -45 -6 -14 -2 -18 18 -18 34 0 38 9 25
53 -14 44 -23 47 -31 10z"/>
<path d="M642 698 c-17 -17 -15 -57 3 -64 24 -10 67 24 63 49 -3 25 -46 35
-66 15z"/>
<path d="M680 577 c-26 -13 -37 -52 -21 -76 13 -20 57 -6 78 25 29 45 -7 77
-57 51z"/>
<path d="M1585 390 c-4 -6 -2 -17 4 -24 9 -10 7 -15 -6 -20 -15 -6 -15 -8 -3
-16 22 -14 43 -12 33 3 -4 6 -6 22 -5 34 3 23 -13 39 -23 23z"/>
</g>
</svg>
