<svg version="1.1" xmlns="http://www.w3.org/2000/svg" width="256" height="256">
  <metadata> Svg Vector Icons : http://www.onlinewebfonts.com/icon </metadata>
  <g>
      <g>
          <path fill="#000000" d="M121.8,10.8c-13.3,3.6-21.6,17.4-18.2,30.5c3.5,13.5,17.3,21.9,30.5,18.4c13.5-3.5,21.9-17.3,18.4-30.4C149,15.6,135,7.2,121.8,10.8z M132.3,35.2v14.2h-3.7h-3.7V38.6V27.9h-1.6h-1.6v-3.4V21h5.3h5.3V35.2z"/>
          <path fill="#000000" d="M171.3,69.8c-12.3,2.6-23,13.4-25.5,25.8c-5,23.9,16.1,45,40,40c12.5-2.6,23.2-13.3,25.8-25.8C216.5,85.7,195.3,64.6,171.3,69.8z M188.6,88.9v4.2l-5.1,0.2l-5.1,0.2l-0.4,1.7c-0.3,1.6-0.3,1.7,1.1,1.7c0.8,0,2.2,0.3,3.2,0.6c9.5,3.2,10.3,16.5,1.2,21.9c-3.2,1.8-8.7,2.3-12.9,1.1c-4.5-1.3-4.6-1.5-4.1-6.3c0.5-3.5,0.7-4.1,1.4-3.7c6.1,2.6,9.3,2.7,11.3,0.1c2.9-3.8-2.6-7-9.1-5.2c-1,0.3-1.9,0.4-2.1,0.3c-0.3-0.2,1.8-17.3,2.4-19.6c0.3-1.2,0.4-1.2,9.2-1.2h8.9L188.6,88.9L188.6,88.9z"/>
          <path fill="#000000" d="M83,136.8c-7.7,1.3-15.7,4.5-21.5,8.7c-1.8,1.3-14.1,13.1-27.4,26.2L10,195.6l25.3,25.2L60.6,246l8.5-12.7l8.5-12.7l45.9-0.2l46-0.2l4.2-1.5c6.9-2.4,9.8-4.6,21.1-15.6c5.8-5.6,19.4-18.9,30.2-29.5c10.8-10.6,20-19.9,20.4-20.6c1.1-2.1,0.9-5.2-0.3-7.2c-0.7-1.2-2.2-2.3-4.6-3.4c-3.1-1.4-4.1-1.6-7.7-1.6c-4.3,0.1-8.6,1.2-12.1,3.2c-0.9,0.5-13.2,10.4-27.3,21.9l-25.8,20.9h-19.7H128l-3.9-3.9c-2.2-2.1-3.9-4-3.9-4.2c0-0.2,8-0.4,17.8-0.5c17.1-0.2,17.9-0.2,20.8-1.4c7.1-2.8,11.4-8.6,11.4-15.1c0-7.4-3.8-12.6-11.6-15.8c-2.1-0.9-4.5-1.1-20.3-1.4c-19.4-0.4-19.3-0.4-26.8-3.7c-2.6-1.2-6.6-2.6-9-3.2C97.8,136.7,87.3,136.1,83,136.8z"/>
      </g>
  </g>
</svg>