<?xml version="1.0" encoding="UTF-8" standalone="no"?>
<!-- Created with Inkscape (http://www.inkscape.org/) -->

<svg
   width="118.72402mm"
   height="118.72403mm"
   viewBox="0 0 118.72402 118.72403"
   version="1.1"
   id="svg1"
   xml:space="preserve"
   sodipodi:docname="Neues Dokument 1.2024_06_05_05_50_59.0.svg"
   xmlns:inkscape="http://www.inkscape.org/namespaces/inkscape"
   xmlns:sodipodi="http://sodipodi.sourceforge.net/DTD/sodipodi-0.dtd"
   xmlns="http://www.w3.org/2000/svg"
   xmlns:svg="http://www.w3.org/2000/svg"><sodipodi:namedview
     id="namedview1"
     pagecolor="#ffffff"
     bordercolor="#000000"
     borderopacity="0.25"
     inkscape:showpageshadow="2"
     inkscape:pageopacity="0.0"
     inkscape:pagecheckerboard="0"
     inkscape:deskcolor="#d1d1d1"
     inkscape:document-units="mm"
     inkscape:export-bgcolor="#ffffff62" /><defs
     id="defs1" /><g
     inkscape:label="Ebene 1"
     inkscape:groupmode="layer"
     id="layer1"
     transform="translate(-13.279124,-126.66375)"><path
       id="path1"
       style="color:#000000;fill:none;stroke:#000000;stroke-width:6.24863;stroke-linecap:square;stroke-linejoin:miter"
       d="m 85.138277,129.78807 c -6.902234,0 -12.497144,5.5951 -12.497144,12.49715 v 12.49714 h -6.613421 a 21.237832,21.237832 0 0 1 0.16366,2.57903 21.237832,21.237832 0 0 1 -21.237784,21.23778 21.237832,21.237832 0 0 1 -3.555497,-0.33244 v 7.75904 h -12.49751 c -6.902233,0 -12.497143,5.5949 -12.497143,12.49714 0,6.90223 5.59491,12.49714 12.497143,12.49714 h 12.49751 v 31.24342 h 31.243042 v -12.49752 c 0,-6.90223 5.59491,-12.49714 12.497144,-12.49714 6.902045,0 12.497505,5.59491 12.497505,12.49714 v 12.49752 h 31.243048 v -31.24342 h -12.49714 c -6.90205,0 -12.49752,-5.59491 -12.49752,-12.49714 0,-6.90224 5.59547,-12.49714 12.49752,-12.49714 h 12.49714 V 154.78236 H 97.635782 v -12.49714 c 0,-6.90205 -5.59546,-12.49715 -12.497505,-12.49715 z" /><path
       id="rect1"
       style="fill:#000000;stroke-width:0.203525"
       d="m 37.789869,137.55881 c -0.0075,0 -0.01303,0.005 -0.01303,0.0131 v 10.55002 H 27.226805 c -0.0075,0 -0.0126,0.005 -0.0126,0.0131 v 7.46639 c 0,0.008 0.005,0.0131 0.0126,0.0131 h 10.550041 v 10.55005 c 0,0.008 0.0059,0.0131 0.01303,0.0131 h 7.466397 c 0.0075,0 0.01303,-0.005 0.01303,-0.0131 v -10.55004 h 10.550042 c 0.0075,0 0.01303,-0.005 0.01303,-0.0131 v -7.46639 c 0,-0.008 -0.0059,-0.0131 -0.01303,-0.0131 h -10.55006 v -10.55003 c 0,-0.008 -0.0059,-0.0131 -0.01303,-0.0131 z"
       inkscape:export-filename="Downloads\miniapps.svg"
       inkscape:export-xdpi="96"
       inkscape:export-ydpi="96" /></g></svg>
