<svg version="1.1" xmlns="http://www.w3.org/2000/svg" viewBox="-50 0 320 320">
  <g transform="scale(1,0.9)">
      <path d="M182.5,249c-35.1,0-63.5-28.4-63.5-63.5c0-35.1,28.5-63.5,63.5-63.5s63.5,28.4,63.5,63.5C246,220.6,217.5,249,182.5,249z M182.5,134.1c-28.4,0-51.4,23-51.4,51.4c0,28.4,23,51.4,51.4,51.4c28.4,0,51.4-23,51.4-51.4C233.9,157.2,210.9,134.1,182.5,134.1z M208.3,206.4L177,194.2l0,0c-0.3-0.1-0.6-0.4-0.9-0.6c-0.3-0.2-0.7-0.4-1-0.6c-0.7-0.7-1.2-1.7-1.4-2.7c-0.1-0.5-0.3-1-0.3-1.5v-30.7c0-3.2,2.6-5.8,5.8-5.8h0.5c3.2,0,5.8,2.6,5.8,5.8v26.7l26.6,10.4c2.9,1.1,4.4,4.5,3.3,7.7C214.4,206,211.2,207.6,208.3,206.4z M191.6,49.3c0-6.7-5.4-12.1-12.1-12.1h-12.1V25.2h12.1c13.4,0,24.2,10.8,24.2,24.2v63.6c-3.9-1.1-8-2-12.1-2.5V49.3z M155.5,55.4H155c-3.2,0-5.8-2.6-5.8-5.8V12.8c0-3.2,2.6-5.8,5.8-5.8h0.5c3.2,0,5.8,2.6,5.8,5.8v36.8C161.3,52.8,158.7,55.4,155.5,55.4z M70.5,25.2h72.6v12.1H70.5V25.2z M58.7,55.4h-0.5c-3.2,0-5.8-2.6-5.8-5.8V12.8c0-3.2,2.6-5.8,5.8-5.8h0.5c3.2,0,5.8,2.6,5.8,5.8v36.8C64.5,52.8,61.9,55.4,58.7,55.4z M58.4,91.4v0.6c0,3.2-2.6,5.7-5.7,5.7h-0.6c-3.2,0-5.7-2.6-5.7-5.7v-0.6c0-3.2,2.6-5.7,5.7-5.7h0.6C55.9,85.7,58.4,88.3,58.4,91.4z M52.7,134.1h-0.6c-3.2,0-5.7-2.6-5.7-5.7v-0.6c0-3.2,2.6-5.7,5.7-5.7h0.6c3.2,0,5.7,2.6,5.7,5.7v0.6C58.4,131.5,55.9,134.1,52.7,134.1z M58.4,164.7c0,3.2-2.6,5.7-5.7,5.7h-0.6c-3.2,0-5.7-2.6-5.7-5.7V164c0-3.2,2.6-5.7,5.7-5.7h0.6c3.2,0,5.7,2.6,5.7,5.7V164.7z M76.3,158.3H112c-1.5,3.9-2.8,7.9-3.6,12.1h-32c-3.2,0-5.8-2.6-5.8-5.8v-0.5C70.5,160.9,73.1,158.3,76.3,158.3z M70.5,92.1v-0.8c0-3.1,2.5-5.7,5.7-5.7h91.6c3.1,0,5.7,2.5,5.7,5.7v0.8c0,3.1-2.5,5.7-5.7,5.7H76.2C73.1,97.8,70.5,95.2,70.5,92.1z M76.3,134.1c-3.2,0-5.8-2.6-5.8-5.8v-0.5c0-3.2,2.6-5.8,5.8-5.8h65.2c-5.3,3.4-10.1,7.5-14.4,12.1L76.3,134.1L76.3,134.1z M22.1,49.3v157.4c0,6.7,5.4,12.1,12.1,12.1h80.4c2.1,4.3,4.6,8.4,7.5,12.2H34.2c-13.4,0-24.2-10.8-24.2-24.2V49.4C10,36,20.8,25.2,34.2,25.2h12.1v12.1H34.2C27.5,37.2,22.1,42.6,22.1,49.3z"/>
  </g>
</svg>